<?xml version="1.0" encoding="UTF-8"?>
<!DOCTYPE svg PUBLIC "-//W3C//DTD SVG 1.1//EN" "http://www.w3.org/Graphics/SVG/1.1/DTD/svg11.dtd">
<!-- Creator: CorelDRAW -->
<svg xmlns="http://www.w3.org/2000/svg" xml:space="preserve" width="90mm" height="210mm" style="shape-rendering:geometricPrecision; text-rendering:geometricPrecision; image-rendering:optimizeQuality; fill-rule:evenodd; clip-rule:evenodd"
viewBox="0 0 90 210"
 xmlns:xlink="http://www.w3.org/1999/xlink">
 <defs>
  <style type="text/css">
   <![CDATA[
    .str0 {stroke:#2B2A29;stroke-width:0.3528}
    .str1 {stroke:#2B2A29;stroke-width:0.3528;stroke-dasharray:3.528000 1.764000}
    .fil0 {fill:none}
    .fil1 {fill:#2B2A29;fill-rule:nonzero}
   ]]>
  </style>
 </defs>
 <g id="Livello_x0020_1">
  <metadata id="CorelCorpID_0Corel-Layer"/>
  <path class="fil0 str0" d="M43.3722 13.6458c13.8071,0 25,6.7157 25,15 0,8.2843 -11.1929,15 -25,15 -4.9452,0 -9.555,-0.8615 -13.4353,-2.348 -3.3213,2.1537 -7.2362,3.0075 -11.7446,2.5615 4.3225,-0.8846 7.0497,-2.2894 8.1815,-4.2143 -4.9216,-2.7395 -8.0016,-6.6535 -8.0016,-10.9992 0,-8.2843 11.1929,-15 25,-15z"/>
  <g id="_277030600">
   <ellipse id="_277025776" class="fil0 str0" cx="43.2823" cy="119.792" rx="25" ry="15"/>
   <ellipse id="_277026496" class="fil0 str0" cx="26.0488" cy="134.105" rx="2.5" ry="1.5"/>
   <g>
    <path id="_277032928" class="fil1" d="M23.4634 137.456l0.3514 0 0 0 -0.0035 0.0693 -0.0103 0.068 -0.0169 0.0667 -0.0231 0.0646 -0.0288 0.0622 -0.034 0.06 -0.0389 0.0575 -0.0434 0.0551 -0.0477 0.0527 -0.0517 0.0506 -0.0556 0.0483 -0.0591 0.0461 -0.0626 0.044 -0.066 0.042 -0.0693 0.04 -0.0723 0.0379 -0.0752 0.0359 -0.0784 0.034 -0.0811 0.0317 -0.0836 0.0298 -0.0862 0.0276 -0.0888 0.0256 -0.0911 0.0233 -0.0934 0.0211 -0.0955 0.0188 -0.0975 0.0165 -0.0995 0.0142 -0.1013 0.0117 -0.103 0.0092 -0.1046 0.0066 -0.106 0.004 -0.1073 0.0014 0 -0.3528 0.0985 -0.0012 0.0972 -0.0038 0.0956 -0.006 0.094 -0.0084 0.0921 -0.0107 0.0905 -0.0128 0.0883 -0.0149 0.0861 -0.017 0.0838 -0.0189 0.0813 -0.0209 0.0788 -0.0226 0.076 -0.0244 0.0732 -0.026 0.0701 -0.0275 0.0668 -0.029 0.0636 -0.0303 0.0601 -0.0315 0.0565 -0.0326 0.0528 -0.0336 0.0488 -0.0344 0.0451 -0.0351 0.0406 -0.0353 0.0367 -0.0358 0.0323 -0.0357 0.0282 -0.0359 0.0241 -0.0353 0.0198 -0.035 0.016 -0.0346 0.0121 -0.0338 0.0085 -0.0335 0.0051 -0.0334 0.0017 -0.0337 0 0zm-1.8243 -0.8236l0 -0.3528 0 0 0.1073 0.0014 0.106 0.004 0.1046 0.0066 0.103 0.0092 0.1013 0.0117 0.0995 0.0142 0.0975 0.0165 0.0955 0.0188 0.0934 0.0211 0.0911 0.0233 0.0888 0.0256 0.0862 0.0276 0.0836 0.0298 0.0811 0.0317 0.0784 0.034 0.0752 0.0359 0.0723 0.0379 0.0693 0.04 0.066 0.042 0.0626 0.044 0.0591 0.0461 0.0556 0.0483 0.0517 0.0506 0.0477 0.0527 0.0434 0.0551 0.0389 0.0575 0.034 0.06 0.0288 0.0622 0.0231 0.0646 0.0169 0.0667 0.0103 0.068 0.0035 0.0693 -0.3514 0 -0.0017 -0.0337 -0.0051 -0.0334 -0.0085 -0.0335 -0.0121 -0.0338 -0.016 -0.0346 -0.0198 -0.035 -0.0241 -0.0353 -0.0282 -0.0359 -0.0323 -0.0357 -0.0367 -0.0358 -0.0406 -0.0353 -0.0451 -0.0351 -0.0488 -0.0344 -0.0528 -0.0336 -0.0565 -0.0326 -0.0601 -0.0315 -0.0636 -0.0303 -0.0668 -0.029 -0.0701 -0.0275 -0.0732 -0.026 -0.076 -0.0244 -0.0788 -0.0226 -0.0813 -0.0209 -0.0838 -0.0189 -0.0861 -0.017 -0.0883 -0.0149 -0.0905 -0.0128 -0.0921 -0.0107 -0.094 -0.0084 -0.0956 -0.006 -0.0972 -0.0038 -0.0985 -0.0012 0 0zm-1.8243 0.8236l-0.3514 0 0 0 0.0035 -0.0693 0.0103 -0.068 0.0169 -0.0667 0.0231 -0.0646 0.0288 -0.0622 0.034 -0.06 0.0389 -0.0575 0.0434 -0.0551 0.0477 -0.0527 0.0517 -0.0506 0.0556 -0.0483 0.0591 -0.0461 0.0626 -0.044 0.066 -0.042 0.0693 -0.04 0.0723 -0.0379 0.0752 -0.0359 0.0784 -0.034 0.0811 -0.0317 0.0836 -0.0298 0.0862 -0.0276 0.0888 -0.0256 0.0911 -0.0233 0.0934 -0.0211 0.0955 -0.0188 0.0975 -0.0165 0.0995 -0.0142 0.1013 -0.0117 0.103 -0.0092 0.1046 -0.0066 0.106 -0.004 0.1073 -0.0014 0 0.3528 -0.0985 0.0012 -0.0972 0.0038 -0.0956 0.006 -0.094 0.0084 -0.0921 0.0107 -0.0905 0.0128 -0.0883 0.0149 -0.0861 0.017 -0.0838 0.0189 -0.0813 0.0209 -0.0788 0.0226 -0.076 0.0244 -0.0732 0.026 -0.0701 0.0275 -0.0668 0.029 -0.0636 0.0303 -0.0601 0.0315 -0.0565 0.0326 -0.0528 0.0336 -0.0488 0.0344 -0.0451 0.0351 -0.0406 0.0353 -0.0367 0.0358 -0.0323 0.0357 -0.0282 0.0359 -0.0241 0.0353 -0.0198 0.035 -0.016 0.0346 -0.0121 0.0338 -0.0085 0.0335 -0.0051 0.0334 -0.0017 0.0337 0 0zm1.8243 0.8236l0 0.3528 0 0 -0.1073 -0.0014 -0.106 -0.004 -0.1046 -0.0066 -0.103 -0.0092 -0.1013 -0.0117 -0.0995 -0.0142 -0.0975 -0.0165 -0.0955 -0.0188 -0.0934 -0.0211 -0.0911 -0.0233 -0.0888 -0.0256 -0.0862 -0.0276 -0.0836 -0.0298 -0.0811 -0.0317 -0.0784 -0.034 -0.0752 -0.0359 -0.0723 -0.0379 -0.0693 -0.04 -0.066 -0.042 -0.0626 -0.044 -0.0591 -0.0461 -0.0556 -0.0483 -0.0517 -0.0506 -0.0477 -0.0527 -0.0434 -0.0551 -0.0389 -0.0575 -0.034 -0.06 -0.0288 -0.0622 -0.0231 -0.0646 -0.0169 -0.0667 -0.0103 -0.068 -0.0035 -0.0693 0.3514 0 0.0017 0.0337 0.0051 0.0334 0.0085 0.0335 0.0121 0.0338 0.016 0.0346 0.0198 0.035 0.0241 0.0353 0.0282 0.0359 0.0323 0.0357 0.0367 0.0358 0.0406 0.0353 0.0451 0.0351 0.0488 0.0344 0.0528 0.0336 0.0565 0.0326 0.0601 0.0315 0.0636 0.0303 0.0668 0.029 0.0701 0.0275 0.0732 0.026 0.076 0.0244 0.0788 0.0226 0.0813 0.0209 0.0838 0.0189 0.0861 0.017 0.0883 0.0149 0.0905 0.0128 0.0921 0.0107 0.094 0.0084 0.0956 0.006 0.0972 0.0038 0.0985 0.0012 0 0z"/>
   </g>
   <g>
    <path class="fil1" d="M18.7301 139.925l0.3514 0 0 0 -0.0029 0.0563 -0.0083 0.0555 -0.0139 0.0543 -0.0185 0.0519 -0.0231 0.0502 -0.0273 0.0482 -0.0312 0.0461 -0.0345 0.0436 -0.0375 0.0416 -0.0409 0.0399 -0.0435 0.0378 -0.0461 0.0359 -0.0485 0.0341 -0.0512 0.0327 -0.0537 0.031 -0.0556 0.0291 -0.0579 0.0277 -0.0603 0.026 -0.0619 0.0244 -0.0642 0.0228 -0.066 0.0211 -0.0679 0.0196 -0.0695 0.0177 -0.0711 0.0162 -0.073 0.0143 -0.0743 0.0126 -0.0757 0.0108 -0.0771 0.0089 -0.0785 0.007 -0.0794 0.005 -0.0806 0.003 -0.0816 0.0011 0 -0.3528 0.0728 -0.0009 0.0718 -0.0028 0.0706 -0.0044 0.0693 -0.0062 0.0681 -0.0079 0.0665 -0.0094 0.0651 -0.011 0.0634 -0.0125 0.0617 -0.014 0.0599 -0.0153 0.0577 -0.0166 0.0558 -0.0179 0.0534 -0.019 0.0513 -0.0202 0.0487 -0.021 0.0461 -0.0221 0.0438 -0.0229 0.0407 -0.0234 0.0378 -0.0241 0.0351 -0.0247 0.0319 -0.0249 0.0289 -0.025 0.0253 -0.0247 0.0225 -0.025 0.0193 -0.0244 0.016 -0.0237 0.0131 -0.023 0.0103 -0.0224 0.0079 -0.0219 0.0053 -0.0207 0.0031 -0.0207 0.0011 -0.0209 0 0zm-1.3243 -0.5736l0 -0.3528 0 0 0.0816 0.0011 0.0806 0.003 0.0794 0.005 0.0785 0.007 0.0771 0.0089 0.0757 0.0108 0.0743 0.0126 0.073 0.0143 0.0711 0.0162 0.0695 0.0177 0.0679 0.0196 0.066 0.0211 0.0642 0.0228 0.0619 0.0244 0.0603 0.026 0.0579 0.0277 0.0556 0.0291 0.0537 0.031 0.0512 0.0327 0.0485 0.0341 0.0461 0.0359 0.0435 0.0378 0.0409 0.0399 0.0375 0.0416 0.0345 0.0436 0.0312 0.0461 0.0273 0.0482 0.0231 0.0502 0.0185 0.0519 0.0139 0.0543 0.0083 0.0555 0.0029 0.0563 -0.3514 0 -0.0011 -0.0209 -0.0031 -0.0207 -0.0053 -0.0207 -0.0079 -0.0219 -0.0103 -0.0224 -0.0131 -0.023 -0.016 -0.0237 -0.0193 -0.0244 -0.0225 -0.025 -0.0253 -0.0247 -0.0289 -0.025 -0.0319 -0.0249 -0.0351 -0.0247 -0.0378 -0.0241 -0.0407 -0.0234 -0.0438 -0.0229 -0.0461 -0.0221 -0.0487 -0.021 -0.0513 -0.0202 -0.0534 -0.019 -0.0558 -0.0179 -0.0577 -0.0166 -0.0599 -0.0153 -0.0617 -0.014 -0.0634 -0.0125 -0.0651 -0.011 -0.0665 -0.0094 -0.0681 -0.0079 -0.0693 -0.0062 -0.0706 -0.0044 -0.0718 -0.0028 -0.0728 -0.0009 0 0zm-1.3243 0.5736l-0.3514 0 0 0 0.0029 -0.0563 0.0083 -0.0555 0.0139 -0.0543 0.0185 -0.0519 0.0231 -0.0502 0.0273 -0.0482 0.0312 -0.0461 0.0345 -0.0436 0.0375 -0.0416 0.0409 -0.0399 0.0435 -0.0378 0.0461 -0.0359 0.0485 -0.0341 0.0512 -0.0327 0.0536 -0.0309 0.0556 -0.0292 0.0581 -0.0277 0.0602 -0.026 0.0619 -0.0244 0.0642 -0.0228 0.066 -0.0211 0.0679 -0.0196 0.0695 -0.0177 0.0711 -0.0162 0.073 -0.0143 0.0743 -0.0126 0.0757 -0.0108 0.0771 -0.0089 0.0785 -0.007 0.0794 -0.005 0.0806 -0.003 0.0816 -0.0011 0 0.3528 -0.0728 0.0009 -0.0718 0.0028 -0.0706 0.0044 -0.0693 0.0062 -0.0681 0.0079 -0.0665 0.0094 -0.0651 0.011 -0.0634 0.0125 -0.0617 0.014 -0.0599 0.0153 -0.0577 0.0166 -0.0558 0.0179 -0.0534 0.019 -0.0513 0.0202 -0.0488 0.021 -0.0461 0.0221 -0.0436 0.0228 -0.0408 0.0235 -0.0378 0.0241 -0.0351 0.0247 -0.0319 0.0249 -0.0289 0.025 -0.0253 0.0247 -0.0225 0.025 -0.0193 0.0244 -0.016 0.0237 -0.0131 0.023 -0.0103 0.0224 -0.0079 0.0219 -0.0053 0.0207 -0.0031 0.0207 -0.0011 0.0209 0 0zm1.3243 0.5736l0 0.3528 0 0 -0.0816 -0.0011 -0.0806 -0.003 -0.0794 -0.005 -0.0785 -0.007 -0.0771 -0.0089 -0.0757 -0.0108 -0.0743 -0.0126 -0.073 -0.0143 -0.0711 -0.0162 -0.0695 -0.0177 -0.0679 -0.0196 -0.066 -0.0211 -0.0642 -0.0228 -0.0619 -0.0244 -0.0602 -0.026 -0.0581 -0.0277 -0.0556 -0.0292 -0.0536 -0.0309 -0.0512 -0.0327 -0.0485 -0.0341 -0.0461 -0.0359 -0.0435 -0.0378 -0.0409 -0.0399 -0.0375 -0.0416 -0.0345 -0.0436 -0.0312 -0.0461 -0.0273 -0.0482 -0.0231 -0.0502 -0.0185 -0.0519 -0.0139 -0.0543 -0.0083 -0.0555 -0.0029 -0.0563 0.3514 0 0.0011 0.0209 0.0031 0.0207 0.0053 0.0207 0.0079 0.0219 0.0103 0.0224 0.0131 0.023 0.016 0.0237 0.0193 0.0244 0.0225 0.025 0.0253 0.0247 0.0289 0.025 0.0319 0.0249 0.0351 0.0247 0.0378 0.0241 0.0408 0.0235 0.0436 0.0228 0.0461 0.0221 0.0488 0.021 0.0513 0.0202 0.0534 0.019 0.0558 0.0179 0.0577 0.0166 0.0599 0.0153 0.0617 0.014 0.0634 0.0125 0.0651 0.011 0.0665 0.0094 0.0681 0.0079 0.0693 0.0062 0.0706 0.0044 0.0718 0.0028 0.0728 0.0009 0 0z"/>
   </g>
  </g>
  <path class="fil0 str1" d="M43.3722 60.4271c13.8071,0 25,6.7157 25,15 0,8.2843 -11.1929,15 -25,15 -4.9452,0 -9.555,-0.8615 -13.4353,-2.348 -3.3213,2.1537 -7.2362,3.0075 -11.7446,2.5615 4.3225,-0.8846 7.0497,-2.2894 8.1815,-4.2143 -4.9216,-2.7395 -8.0016,-6.6535 -8.0016,-10.9992 0,-8.2843 11.1929,-15 25,-15z"/>
  <polygon class="fil0 str0" points="27.6359,164.193 25.6661,153.839 32.5748,162.076 33.2803,148.671 39.6303,161.724 40.3359,159.96 47.0533,149.736 48.2153,160.984 62.5012,150.91 55.8581,164.899 72.8117,159.332 62.4017,170.057 81.414,172.692 61.8553,176.893 70.6748,187.124 55.5053,181.832 55.089,192.128 47.0387,183.949 43.5109,194.708 39.6303,184.301 32.222,192.062 32.5748,183.243 8.5859,197.354 28.3414,179.715 16.347,183.596 24.4609,176.54 9.9969,175.129 23.0498,170.543 14.0129,157.564 "/>
 </g>
</svg>
